<svg width="40" height="40" viewBox="0 0 40 40" fill="none" xmlns="http://www.w3.org/2000/svg">
<g id="Icon">
<path id="&#226;&#128;&#156; vase, route, ballet, address (noun), ate, buoy, tomato, advertisement, garage, leisure" d="M17.6059 25.9265C17.6059 22.6939 14.8697 19.8531 11.7427 19.7551C12.7199 16.1306 14.5765 12.4082 17.215 8H11.645C7.73616 14.0735 5 20.1469 5 24.849C5 29.1592 7.83388 32 11.4495 32C14.772 32 17.6059 29.2571 17.6059 25.9265ZM35 25.9265C35 22.6939 32.2638 19.8531 29.1368 19.7551C30.114 16.1306 31.9707 12.4082 34.6091 8H29.0391C25.1303 14.0735 22.3941 20.1469 22.3941 24.849C22.3941 29.1592 25.228 32 28.8436 32C32.1661 32 35 29.2571 35 25.9265Z" fill="#1797CC"/>
</g>
</svg>
