<svg width="24" height="24" viewBox="0 0 24 24" fill="none" xmlns="http://www.w3.org/2000/svg">
<g id="ico / social / insta">
<path id="Instagram" fill-rule="evenodd" clip-rule="evenodd" d="M12 0C8.74095 0 8.33234 0.0138139 7.05242 0.0722133C5.77511 0.130517 4.90283 0.333343 4.1395 0.630008C3.35039 0.936677 2.68118 1.347 2.01406 2.01411C1.34695 2.68123 0.936629 3.35044 0.629961 4.13954C0.333296 4.90288 0.13047 5.77516 0.0721656 7.05246C0.0137662 8.33234 0 8.741 0 12C0 15.2591 0.0137662 15.6677 0.0721656 16.9476C0.13047 18.2249 0.333296 19.0972 0.629961 19.8605C0.936629 20.6496 1.34695 21.3188 2.01406 21.9859C2.68118 22.6531 3.35039 23.0634 4.1395 23.37C4.90283 23.6667 5.77511 23.8695 7.05242 23.9278C8.33234 23.9862 8.74095 24 12 24C15.259 24 15.6677 23.9862 16.9475 23.9278C18.2248 23.8695 19.0971 23.6667 19.8605 23.37C20.6496 23.0634 21.3188 22.6531 21.9859 21.9859C22.653 21.3188 23.0633 20.6496 23.37 19.8605C23.6667 19.0972 23.8695 18.2249 23.9278 16.9476C23.9862 15.6677 24 15.2591 24 12C24 8.741 23.9862 8.33234 23.9278 7.05246C23.8695 5.77516 23.6667 4.90288 23.37 4.13954C23.0633 3.35044 22.653 2.68123 21.9859 2.01411C21.3188 1.347 20.6496 0.936677 19.8605 0.630008C19.0971 0.333343 18.2248 0.130517 16.9475 0.0722133C15.6677 0.0138139 15.259 0 12 0ZM12.0218 5.85724C8.61604 5.85724 5.85511 8.61817 5.85511 12.0239C5.85511 15.4297 8.61604 18.1906 12.0218 18.1906C15.4275 18.1906 18.1884 15.4297 18.1884 12.0239C18.1884 8.61817 15.4275 5.85724 12.0218 5.85724ZM12.0239 16.0268C9.81315 16.0268 8.02095 14.2346 8.02095 12.0239C8.02095 9.81315 9.81315 8.02095 12.0239 8.02095C14.2346 8.02095 16.0268 9.81315 16.0268 12.0239C16.0268 14.2346 14.2346 16.0268 12.0239 16.0268ZM19.8094 5.57166C19.8094 6.36064 19.1698 7.00025 18.3808 7.00025C17.5918 7.00025 16.9522 6.36064 16.9522 5.57166C16.9522 4.78267 17.5918 4.14311 18.3808 4.14311C19.1698 4.14311 19.8094 4.78267 19.8094 5.57166Z" fill="white"/>
</g>
</svg>
