<svg width="24" height="24" viewBox="0 0 24 24" fill="none" xmlns="http://www.w3.org/2000/svg">
<g id="Logo 2" clip-path="url(#clip0_434_124)">
<g id="Artboard">
<path id="Exclude" fill-rule="evenodd" clip-rule="evenodd" d="M24 12C24 18.6274 18.6274 24 12 24C5.37258 24 0 18.6274 0 12C0 5.37258 5.37258 0 12 0C18.6274 0 24 5.37258 24 12ZM12.43 8.85905C11.2628 9.34452 8.93014 10.3493 5.43189 11.8734C4.86383 12.0993 4.56626 12.3203 4.53917 12.5364C4.49339 12.9016 4.95071 13.0454 5.57347 13.2412C5.65818 13.2679 5.74595 13.2955 5.83594 13.3247C6.44864 13.5239 7.27283 13.7569 7.70129 13.7661C8.08994 13.7745 8.52373 13.6143 9.00264 13.2855C12.2712 11.0791 13.9584 9.96393 14.0643 9.93989C14.139 9.92292 14.2426 9.9016 14.3128 9.96396C14.3829 10.0263 14.376 10.1444 14.3686 10.1761C14.3233 10.3693 12.5281 12.0382 11.5991 12.9019C11.3095 13.1711 11.1041 13.3621 11.0621 13.4057C10.968 13.5035 10.8721 13.5959 10.78 13.6847C10.2108 14.2334 9.78391 14.6449 10.8036 15.3169C11.2936 15.6398 11.6857 15.9068 12.0769 16.1732C12.5042 16.4642 12.9303 16.7544 13.4816 17.1158C13.6221 17.2078 13.7562 17.3035 13.8869 17.3966C14.3841 17.7511 14.8307 18.0695 15.3826 18.0187C15.7032 17.9892 16.0345 17.6877 16.2027 16.7885C16.6002 14.6633 17.3816 10.0586 17.5622 8.16109C17.578 7.99485 17.5581 7.78209 17.5422 7.6887C17.5262 7.5953 17.4928 7.46223 17.3714 7.36372C17.2276 7.24706 17.0056 7.22246 16.9064 7.22421C16.455 7.23216 15.7626 7.47294 12.43 8.85905Z" fill="white"/>
</g>
</g>
<defs>
<clipPath id="clip0_434_124">
<rect width="24" height="24" fill="white"/>
</clipPath>
</defs>
</svg>
