<svg width="24" height="24" viewBox="0 0 24 24" fill="none" xmlns="http://www.w3.org/2000/svg">
<g id="ico / social / tw">
<path id="Vector" d="M7.54753 21.5012C16.6042 21.5012 21.5578 13.9979 21.5578 7.49098C21.5578 7.27789 21.5578 7.06573 21.5434 6.85452C22.507 6.15744 23.3389 5.29442 24 4.30573C23.1014 4.70394 22.148 4.96503 21.1718 5.08044C22.1995 4.46525 22.9692 3.49691 23.3366 2.35691C22.3701 2.93042 21.3126 3.33467 20.2099 3.55212C19.2789 2.56208 17.9786 2 16.6196 2C13.9158 2 11.691 4.22487 11.691 6.92863C11.691 7.30372 11.7338 7.67764 11.8185 8.04298C7.86145 7.84466 4.16948 5.97294 1.67039 2.89836C0.370828 5.13552 1.04325 8.03473 3.19486 9.47145C2.41134 9.44825 1.64466 9.23684 0.96 8.85514V8.91753C0.960656 11.2526 2.62158 13.2821 4.91039 13.7444C4.18552 13.9421 3.42478 13.971 2.68706 13.8289C3.33052 15.8298 5.18602 17.209 7.28738 17.2484C5.54409 18.6185 3.38939 19.3626 1.17216 19.3604C0.780375 19.3597 0.388969 19.336 0 19.2894C2.25159 20.7343 4.87219 21.5009 7.54753 21.4974" fill="white"/>
</g>
</svg>
