<svg width="24" height="24" viewBox="0 0 24 24" fill="none" xmlns="http://www.w3.org/2000/svg">
<g id="ico / social / viber" clip-path="url(#clip0_434_110)">
<path id="Vector" d="M11.3667 0.00195462C9.33836 0.0279547 4.97402 0.343956 2.53265 2.46696C0.720318 4.17697 0.0870567 6.69798 0.0132992 9.81999C-0.0499216 12.93 -0.123679 18.77 5.80854 20.361V22.781C5.80854 22.781 5.7685 23.751 6.44285 23.951C7.27526 24.201 7.74942 23.452 8.53967 22.652L10.0148 21.072C14.0715 21.392 17.1798 20.653 17.5381 20.543C18.36 20.293 22.9972 19.732 23.7559 13.891C24.5356 7.85998 23.3765 4.05997 21.2903 2.33996L21.2797 2.33796C20.6475 1.78796 18.1187 0.0379547 12.4604 0.0179547C12.4604 0.0179547 12.0432 -0.00704541 11.3667 0.00195462ZM11.4373 1.69896C12.0115 1.69596 12.3645 1.71896 12.3645 1.71896C17.1482 1.72896 19.4358 3.09896 19.9732 3.55897C21.7328 4.98797 22.6369 8.41498 21.9751 13.451C21.3429 18.331 17.5813 18.641 16.8859 18.851C16.5908 18.941 13.8513 19.581 10.4036 19.371C10.4036 19.371 7.83371 22.312 7.03291 23.072C6.90647 23.202 6.75896 23.242 6.66412 23.222C6.52715 23.192 6.485 23.032 6.49554 22.812L6.51661 18.793C1.4895 17.473 1.78453 12.491 1.83722 9.89099C1.90044 7.29098 2.41674 5.15897 3.94458 3.71897C6.00663 1.94896 9.71453 1.70896 11.4373 1.69896ZM11.8166 4.29897C11.7752 4.29884 11.7341 4.30647 11.6957 4.32144C11.6574 4.33641 11.6225 4.35841 11.5932 4.38619C11.5638 4.41397 11.5405 4.44697 11.5246 4.48332C11.5087 4.51966 11.5005 4.55862 11.5005 4.59797C11.5005 4.67754 11.5338 4.75384 11.5931 4.8101C11.6524 4.86636 11.7328 4.89797 11.8166 4.89797C12.6 4.88379 13.3785 5.01699 14.1074 5.28989C14.8362 5.56279 15.5008 5.96999 16.0629 6.48798C17.2115 7.54798 17.771 8.96798 17.792 10.828C17.792 10.8674 17.8002 10.9064 17.8161 10.9428C17.832 10.9792 17.8553 11.0123 17.8846 11.0401C17.914 11.068 17.9488 11.0901 17.9872 11.1052C18.0255 11.1202 18.0666 11.128 18.1081 11.128V11.119C18.192 11.119 18.2724 11.0874 18.3317 11.0311C18.3909 10.9749 18.4242 10.8986 18.4242 10.819C18.4633 9.94427 18.3144 9.07116 17.9865 8.25282C17.6586 7.43448 17.1587 6.68805 16.5171 6.05897C15.2632 4.89897 13.6816 4.29897 11.8166 4.29897ZM7.65037 4.98897C7.42629 4.95867 7.19799 5.00094 7.00236 5.10897H6.98971C6.5577 5.34897 6.15941 5.64897 5.78009 6.04897C5.49559 6.36898 5.33649 6.68798 5.29434 6.99798C5.26955 7.17979 5.28754 7.36456 5.34703 7.53898L5.3681 7.54898C5.69287 8.45513 6.11665 9.32654 6.63251 10.149C7.30119 11.3008 8.12274 12.3665 9.07705 13.32L9.10866 13.36L9.15081 13.39L9.18242 13.42L9.21403 13.45C10.2226 14.358 11.3485 15.1409 12.5647 15.78C13.9556 16.5 14.8006 16.84 15.3064 16.98V16.99C15.4539 17.03 15.5888 17.05 15.7258 17.05C16.1575 17.0201 16.5662 16.854 16.8869 16.578C17.2979 16.228 17.6245 15.84 17.8668 15.43V15.42C18.1092 14.99 18.0249 14.579 17.6772 14.299C16.9764 13.7172 16.2177 13.2014 15.4118 12.759C14.8744 12.479 14.3265 12.649 14.1052 12.929L13.6311 13.498C13.3887 13.778 12.9462 13.738 12.9462 13.738L12.9335 13.748C9.64604 12.948 8.77148 9.78899 8.77148 9.78899C8.77148 9.78899 8.72934 9.35898 9.0349 9.13898L9.62496 8.68898C9.90946 8.46898 10.1097 7.94898 9.80409 7.43898C9.33852 6.67371 8.79504 5.9536 8.18142 5.28897C8.04795 5.13187 7.85952 5.02542 7.65037 4.98897ZM12.3635 5.87897C12.2796 5.87924 12.1994 5.9111 12.1403 5.96755C12.0812 6.024 12.0481 6.10041 12.0484 6.17997C12.0487 6.25954 12.0823 6.33574 12.1418 6.39181C12.2012 6.44789 12.2817 6.47924 12.3656 6.47898C13.4201 6.49635 14.4242 6.90992 15.1578 7.62898C15.4888 7.9755 15.7433 8.38145 15.9061 8.82287C16.069 9.26429 16.137 9.73221 16.1061 10.199C16.1064 10.2784 16.1399 10.3544 16.1991 10.4105C16.2584 10.4665 16.3386 10.498 16.4223 10.498L16.4328 10.51C16.4744 10.51 16.5156 10.5022 16.554 10.4871C16.5924 10.4719 16.6273 10.4497 16.6567 10.4218C16.686 10.3938 16.7093 10.3606 16.7251 10.3241C16.741 10.2876 16.749 10.2485 16.7489 10.209C16.7805 9.01898 16.3906 8.01898 15.6215 7.21898C14.8523 6.41898 13.7775 5.96897 12.4077 5.87897C12.393 5.87799 12.3782 5.87799 12.3635 5.87897ZM12.8798 7.49798C12.8375 7.4968 12.7954 7.50353 12.7559 7.51779C12.7163 7.53205 12.6802 7.55356 12.6494 7.58109C12.6186 7.60863 12.5939 7.64164 12.5765 7.67825C12.5592 7.71487 12.5496 7.75436 12.5484 7.79448C12.5472 7.8346 12.5542 7.87456 12.5693 7.91208C12.5843 7.94959 12.607 7.98393 12.636 8.01314C12.665 8.04234 12.6998 8.06584 12.7384 8.08228C12.7769 8.09873 12.8185 8.1078 12.8608 8.10898C13.904 8.15898 14.4097 8.65898 14.4729 9.68899C14.4757 9.7668 14.5102 9.84057 14.5692 9.89468C14.6282 9.9488 14.707 9.97903 14.789 9.97899H14.7996C14.842 9.97773 14.8838 9.96837 14.9223 9.95147C14.9609 9.93456 14.9955 9.91046 15.024 9.88059C15.0525 9.85072 15.0744 9.8157 15.0883 9.77763C15.1023 9.73955 15.108 9.6992 15.1052 9.65899C15.0314 8.31898 14.2622 7.56798 12.8924 7.49798C12.8882 7.4979 12.884 7.4979 12.8798 7.49798Z" fill="white"/>
</g>
<defs>
<clipPath id="clip0_434_110">
<rect width="24" height="24" fill="white"/>
</clipPath>
</defs>
</svg>
