<svg width="24" height="24" viewBox="0 0 24 24" fill="none" xmlns="http://www.w3.org/2000/svg">
<g id="ico / social / Whatsapp" clip-path="url(#clip0_434_114)">
<g id="Group">
<path id="Vector" d="M0 24L1.679 18.0367C0.599306 16.2025 0.0308375 14.1155 0.0308375 11.9716C0.0308375 5.37044 5.40128 0 12.0024 0C18.6036 0 23.974 5.37044 23.974 11.9716C23.974 18.5728 18.6036 23.9432 12.0024 23.9432C9.94556 23.9432 7.93148 23.4167 6.14973 22.417L0 24ZM6.46413 20.239L6.83057 20.4628C8.38404 21.4111 10.1725 21.9124 12.0024 21.9124C17.4838 21.9124 21.9432 17.453 21.9432 11.9716C21.9432 6.49023 17.4838 2.03078 12.0024 2.03078C6.52106 2.03078 2.06162 6.49023 2.06162 11.9716C2.06162 13.8815 2.60444 15.7362 3.63126 17.3352L3.87804 17.7195L2.91116 21.1536L6.46413 20.239Z" fill="white"/>
<path id="Vector_2" d="M8.6395 6.39971L7.86269 6.35736C7.6187 6.34405 7.37936 6.42558 7.19494 6.58579C6.81834 6.91282 6.21618 7.54507 6.03123 8.36897C5.75542 9.59744 6.18166 11.1017 7.28482 12.606C8.38799 14.1103 10.4438 16.5171 14.0791 17.5451C15.2506 17.8763 16.1721 17.653 16.8831 17.1982C17.4462 16.838 17.8344 16.2598 17.9743 15.6062L18.0984 15.0269C18.1378 14.8428 18.0443 14.656 17.8732 14.5771L15.2479 13.367C15.0775 13.2885 14.8754 13.3381 14.7607 13.4867L13.7301 14.8228C13.6522 14.9237 13.5189 14.9637 13.3986 14.9215C12.6928 14.6734 10.3285 13.6832 9.03122 11.1843C8.97496 11.0759 8.98895 10.9444 9.06875 10.8519L10.0538 9.71244C10.1544 9.59609 10.1798 9.43249 10.1193 9.29109L8.98767 6.64348C8.92742 6.50253 8.79241 6.40806 8.6395 6.39971Z" fill="white"/>
</g>
</g>
<defs>
<clipPath id="clip0_434_114">
<rect width="24" height="24" fill="white"/>
</clipPath>
</defs>
</svg>
